<svg width="240" height="70" viewBox="0 0 240 70" fill="none" xmlns="http://www.w3.org/2000/svg">
<path d="M164.05 60.2524C164.146 58.9981 163.797 57.8961 163.106 56.8535C162.402 55.7917 162.049 54.6448 162.58 53.38L162.664 53.0922C162.976 51.9526 162.833 50.8997 161.987 50.0258C161.352 49.368 161.178 48.6134 161.363 47.7454C161.609 46.6046 161.528 45.547 160.837 44.5242C160.24 43.6366 160.136 42.6568 160.611 41.6068C161.013 40.7254 161.275 39.7736 161.53 38.8356C161.728 38.1047 161.729 37.3308 161.452 36.6195C161.227 36.0393 161.286 35.5126 161.425 34.9415C161.573 34.3392 161.656 33.7172 161.737 33.1012C161.8 32.627 161.641 32.2078 161.286 31.8825C160.818 31.4562 160.656 30.9252 160.734 30.3211C160.827 29.6275 160.962 28.9415 160.598 28.2734C160.533 28.1571 160.571 27.9782 160.581 27.8289C160.671 26.6239 160.366 25.5022 159.89 24.4104C159.618 23.781 159.503 23.1189 159.574 22.4343C159.712 21.1056 159.628 19.7797 159.396 18.4777C159.146 17.0773 158.752 15.7051 158.455 14.3121C158.352 13.8303 158.284 13.3234 158.314 12.8357C158.376 11.8409 158.496 10.8477 158.629 9.8574C158.791 8.66407 159.084 7.50682 159.601 6.40617C160.098 5.34135 160.558 4.25862 161.018 3.17732C161.183 2.78655 161.323 2.38241 161.422 1.97062C161.542 1.47547 161.536 0.975787 161.235 0.525544C160.835 -0.0725505 160.308 -0.184335 159.783 0.316784C159.356 0.729766 158.951 1.20127 158.665 1.7172C158.102 2.73138 157.454 3.6708 156.673 4.52853C156.129 5.12662 155.897 5.83961 155.864 6.65386C155.803 8.23628 155.44 9.71886 154.288 10.9162C153.96 11.2578 153.672 11.6426 153.407 12.0362C153.14 12.427 152.86 12.8312 152.708 13.2711C152.347 14.3075 151.955 15.3516 151.77 16.4283C151.526 17.8615 151.148 19.2487 150.766 20.6477C150.449 21.8095 149.906 22.764 149.088 23.6024C148.569 24.1333 148.207 24.7627 147.98 25.4575C147.709 26.2897 147.472 27.131 147.246 27.9768C147.144 28.3615 147.073 28.7597 147.036 29.1548C146.862 31.0458 146.724 32.9402 146.531 34.8267C146.485 35.274 146.526 35.7709 146.214 36.1764L146.08 36.0603C145.583 35.3787 145.523 34.5897 145.446 33.7843C145.269 31.8961 145.076 30.0125 145.153 28.111C145.175 27.5368 145.153 26.9611 145.17 26.3869C145.185 25.9171 144.988 25.5681 144.631 25.2877C144.495 25.1819 144.354 25.0835 144.196 24.9669C144.225 24.6134 144.253 24.2659 144.28 23.92C144.345 23.0759 144.229 22.2915 143.681 21.5831C143.485 21.3325 143.399 20.9358 143.402 20.6076C143.409 19.7606 143.489 18.9119 143.557 18.0662C143.609 17.3651 143.356 16.7954 142.864 16.3139C142.738 16.193 142.575 16.0946 142.485 15.953C142.344 15.7323 142.14 15.4772 142.154 15.2477C142.197 14.4289 142.269 13.6041 142.429 12.8018C142.555 12.1693 142.844 11.5712 143.026 10.9478C143.353 9.82014 143.694 8.69728 143.952 7.5534C144.084 6.96868 143.791 6.55999 143.297 6.3381C142.823 6.12169 142.428 6.17377 142.049 6.6885C141.397 7.57155 140.787 8.49162 140.232 9.43558C139.988 9.85453 139.888 10.3676 139.778 10.851C139.597 11.6624 139.402 12.4693 138.794 13.0836C138.136 13.7488 137.776 14.5586 137.542 15.443C137.505 15.5892 137.43 15.7263 137.343 15.9382C136.932 14.8853 136.765 14.7824 135.874 14.994C135.843 14.8509 135.831 14.7002 135.775 14.5674C135.528 13.9724 135.058 13.88 134.614 14.3555C134.428 14.5526 134.239 14.779 134.148 15.0281C133.805 15.9664 133.459 16.906 133.19 17.8648C132.924 18.8267 132.789 19.8246 132.53 20.7879C131.957 22.9087 131.536 25.0742 130.617 27.0937C130.505 27.3397 130.463 27.6201 130.412 27.8886C130.146 29.3339 130.186 30.7716 130.493 32.2078C130.86 33.9169 130.825 35.6349 130.556 37.3533C130.385 38.4642 129.731 39.3217 129.025 40.1436C127.907 41.4425 127.418 42.9368 127.558 44.6474C127.625 45.4796 127.802 46.2705 128.139 47.0355C128.724 48.3566 128.939 49.7093 128.41 51.1099C128.322 51.3428 128.257 51.5905 128.227 51.8363C128.148 52.4568 128.124 53.0654 128.407 53.6724C128.568 54.0199 128.64 54.4374 128.642 54.8251C128.653 56.3509 128.617 57.8753 128.614 59.4008C128.612 59.6708 128.663 59.9483 128.737 60.2094C128.84 60.5882 129.062 60.8985 129.469 60.9921C129.909 61.0936 130.179 60.8072 130.406 60.4989C130.814 59.9454 131.101 59.3337 131.171 58.6461C131.297 57.4097 131.704 56.2675 132.19 55.1354C132.409 54.6197 132.499 54.0273 132.536 53.4636C132.608 52.357 132.363 51.2774 132.133 50.2004C132.076 49.9364 132.034 49.6484 132.08 49.3875C132.309 48.1035 132.803 46.9147 133.784 46.0381C134.592 45.3117 134.928 44.4912 134.788 43.4446C134.757 43.1954 134.776 42.9389 134.724 42.6958C134.557 41.9426 134.656 41.2163 134.826 40.4734C135.056 39.4519 135.317 38.4243 135.403 37.3848C135.545 35.6588 135.841 33.9708 136.249 32.2943C136.534 31.1308 136.538 29.9765 136.122 28.8266C135.717 27.708 135.753 26.5747 136.144 25.4427C136.339 24.8774 136.447 24.2838 136.634 23.7156C136.841 23.0862 136.985 22.4181 137.573 21.7782C137.62 22.1408 137.686 22.3749 137.676 22.603C137.635 23.3518 137.583 24.0989 137.508 24.8418C137.414 25.8067 137.621 26.6344 138.481 27.1998C138.863 27.4486 139.059 27.8084 139.133 28.2498C139.209 28.6928 139.432 29.1104 139.814 29.285C140.719 29.7011 140.871 30.4749 140.955 31.3148L140.977 31.5383C141.156 33.0326 141.42 34.4899 142.166 35.8439C142.467 36.39 142.508 37.0834 142.641 37.7142C142.731 38.1274 142.693 38.5824 142.852 38.9627C143.165 39.7187 143.113 40.4691 143.034 41.2473C142.87 42.9045 143.32 43.8619 144.794 44.1528C145.159 44.2242 145.362 44.4451 145.397 44.8194C145.434 45.1908 145.483 45.562 145.532 45.9334C145.657 46.903 145.809 47.8694 146.417 48.6836C146.773 49.1594 147.226 49.4341 147.849 49.2908C148.361 49.1714 148.785 48.6509 148.842 48.0172C148.896 47.4444 148.943 46.8657 148.909 46.2946C148.819 44.7375 149.278 43.3402 150.023 41.9978C150.236 41.6145 150.404 41.173 150.463 40.7402C150.571 39.9513 150.609 39.1492 150.633 38.351C150.676 36.9104 150.937 35.5638 152.101 34.557L152.253 34.3898C153.299 32.9641 153.891 31.4234 153.524 29.6218C153.243 28.2378 153.485 26.8895 153.855 25.5562C153.927 25.2951 154.035 25.0431 154.128 24.7866C154.255 25.094 154.255 25.3685 154.255 25.6427C154.257 26.4899 154.517 27.2103 155.25 27.7159C155.433 27.8425 155.587 28.0157 155.736 28.1855C156.098 28.6047 156.291 29.0774 156.133 29.6382C155.986 30.1675 155.838 30.6956 155.676 31.2221C155.361 32.2468 154.901 33.2519 154.75 34.2988C154.535 35.7842 154.609 37.295 155.19 38.7312C155.309 39.0281 155.429 39.3456 155.448 39.6604C155.487 40.3839 155.508 41.1131 155.461 41.8349C155.301 44.2689 155.968 46.4284 157.549 48.2988C157.96 48.782 157.995 49.2906 157.843 49.9037C157.634 50.7447 157.495 51.6113 157.429 52.475C157.356 53.4027 157.741 54.1305 158.67 54.4854L158.799 54.6199C158.799 55.0912 158.803 55.5906 158.796 56.0886C158.788 56.7507 159.008 57.3221 159.512 57.7561C159.907 58.0993 160.314 58.4466 160.762 58.7151C161.219 58.991 161.357 59.3445 161.291 59.8456C161.228 60.3154 161.204 60.7896 161.173 61.2639C161.147 61.6619 161.247 62.0125 161.634 62.2139C161.992 62.4002 162.254 62.184 162.522 61.9915L162.668 61.9826L162.764 62.0873C163.203 62.5272 163.486 62.6015 163.874 62.3808C164.261 62.1601 164.341 61.8381 164.201 61.2773C164.116 60.9431 164.025 60.5882 164.05 60.2524Z" fill="#11B0C8"/>
<path d="M44.0866 63.137C43.9397 62.2109 43.5593 61.3757 42.8938 60.6806C42.0936 59.8381 41.605 58.8643 41.5301 57.6798C41.4432 56.3196 40.6596 55.4231 39.4188 54.9459C39.011 54.788 38.7218 54.5747 38.5272 54.2047C38.2949 53.7631 38.0297 53.3339 37.8365 52.876C37.5907 52.2958 37.1621 51.9053 36.5851 51.7782C35.9122 51.6275 35.6155 51.2205 35.4672 50.6224C35.4118 50.4031 35.3369 50.1884 35.3038 49.966C35.0777 48.5329 34.2907 47.4829 33.0559 46.7579C32.6618 46.5253 32.4655 46.2016 32.2798 45.8004C31.902 44.9875 31.5574 44.121 30.9998 43.4409C30.2054 42.4729 29.2061 41.7272 27.7944 42.282L27.6161 42.2328C27.4454 41.8764 27.2909 41.4797 27.0751 41.1186C26.5476 40.2431 26.203 40.1658 25.3188 40.6728L25.1976 40.6803C25.121 40.5221 25.0387 40.3475 24.9518 40.1732C24.6492 39.5708 24.3778 38.9486 24.0334 38.37C23.7245 37.8508 23.3515 37.3797 22.6217 37.4139C22.4359 37.4227 22.2425 37.2498 21.9144 37.0965C22.2816 36.8426 22.4717 36.6742 22.6906 36.5669C23.3724 36.2282 23.8879 35.7359 24.1457 35.0201C24.2626 34.6979 24.48 34.519 24.7721 34.4294C25.1302 34.3205 25.4988 34.2237 25.8706 34.1908C26.8716 34.1012 27.5354 33.5077 28.0224 32.7261C28.5245 31.9207 28.8946 31.0379 29.0506 30.0863C29.13 29.594 29.2169 29.1466 29.7264 28.8471C29.9676 28.7055 30.1176 28.3309 30.2059 28.0328C30.3139 27.654 30.3605 27.2437 30.3559 26.85C30.3485 26.1655 30.5208 25.5929 31.0152 25.0827C31.9205 24.1567 32.1766 23.0111 31.9654 21.7538C31.7945 20.7382 31.6867 19.7434 32.0659 18.7277C32.5169 17.5256 32.2291 16.4562 31.1966 15.6465C30.8806 15.3988 30.7634 15.126 30.8174 14.7458C30.8503 14.5234 30.8729 14.2982 30.8832 14.0732C30.9192 13.3021 30.9641 12.5311 30.9686 11.7587C30.9686 11.5468 30.8935 11.2962 30.7663 11.1276C29.8687 9.94192 29.1478 9.57958 27.8815 10.0195C27.6206 10.1106 27.3583 10.2106 27.0888 10.2522C26.6527 10.3236 26.4984 10.1836 26.4518 9.74654C26.419 9.42432 26.4144 9.09637 26.3484 8.78012C26.2164 8.11658 25.8314 7.79437 25.1465 7.75854C24.8976 7.74492 24.6415 7.75711 24.3972 7.80488C23.6405 7.95249 22.9901 7.82733 22.3757 7.30806C21.9442 6.93974 21.4106 6.68321 20.8997 6.41784C20.011 5.95542 19.0954 5.54387 18.2126 5.07094C17.6674 4.77571 17.1024 4.62045 16.4892 4.59824C16.1894 4.5863 15.8808 4.6281 15.587 4.57579C14.6131 4.40142 13.8262 4.75493 13.08 5.33511C12.2484 5.98098 11.4017 6.61012 10.5324 7.20535C9.39048 7.98832 8.15424 8.38052 6.762 7.93768L6.46824 7.87797C5.90184 7.7005 5.39064 7.84668 4.8708 8.08816C4.0332 8.47893 3.33624 9.03666 2.74128 9.72719C2.39208 10.1344 2.03688 10.2895 1.49736 10.0434C1.01784 9.82703 0.740643 9.9166 0.512883 10.2911C-0.0323969 11.1876 -0.384717 12.6685 0.746643 13.7361C0.929523 13.9076 1.1124 14.0794 1.30584 14.2387C2.08968 14.8846 2.19576 15.6957 1.90656 16.6129C1.7808 17.0171 1.64136 17.4229 1.56648 17.8373C1.26216 19.5449 1.39584 21.1318 2.8584 22.3505C3.16392 22.6041 3.4248 22.9218 3.66912 23.2378C4.10664 23.8032 4.4364 24.4042 4.2372 25.1723C4.0872 25.7508 4.02288 26.3503 3.876 26.9277C3.75144 27.4154 3.75144 27.8551 4.04088 28.2908C4.14432 28.4458 4.21776 28.668 4.19976 28.8471C4.152 29.3153 4.25232 29.7373 4.45464 30.152C4.67208 30.5948 4.68984 31.035 4.5492 31.5271C4.31832 32.3294 4.40688 33.1109 4.97472 33.7864C5.21736 34.0742 5.43624 34.3785 5.67888 34.6663C6.04008 35.0929 6.2184 35.5449 6.04896 36.1176C5.8572 36.7649 5.95752 37.3824 6.25128 38.0041C6.8748 39.3269 7.27944 40.729 7.28544 42.1951C7.28688 43.0261 7.36632 43.8952 6.86592 44.6665C6.44328 45.3155 6.68448 45.97 7.116 46.4649C7.71552 47.154 7.99584 47.9637 8.29536 48.7873C8.43624 49.1766 8.40336 49.5079 8.18304 49.8523C7.52208 50.8887 7.48608 52.0013 7.7544 53.1707C7.94328 53.9924 8.3148 54.7233 8.76432 55.4153C9.08496 55.9087 9.32616 56.4189 9.41616 56.9946C9.49128 57.4837 9.68592 57.8939 10.0757 58.2189C10.1986 58.3219 10.3183 58.4951 10.3318 58.6486C10.4126 59.4627 10.6075 60.2655 10.3723 61.1007C10.1326 61.9492 10.3303 62.3996 11.1082 62.8604C11.6297 63.169 11.8214 63.6078 11.8514 64.1564C11.874 64.5799 11.8454 65.0082 11.8666 65.4317C11.9086 66.1802 12.1378 66.856 12.7373 67.3573C13.0085 67.584 13.3008 67.8166 13.6843 67.6554C14.0753 67.4944 14.2344 67.1455 14.2418 66.7487C14.2522 66.276 14.2298 65.7985 14.1984 65.3259C14.1444 64.5013 14.1744 63.7184 15.0257 63.2528L15.1366 63.1527C16.0298 62.2716 16.1227 61.3465 15.5023 60.2518C15.0468 59.4464 14.8385 58.5918 15.246 57.6748C15.4063 57.3137 15.54 56.9155 15.5683 56.525C15.5938 56.1431 15.5592 55.7091 15.3931 55.3751C15.0708 54.7309 14.647 54.1343 14.2466 53.5288C13.6188 52.5803 13.2636 51.6127 13.9394 50.5326L14.0323 50.3283C14.6736 49.1637 14.7305 48.0002 14.0054 46.8475C13.7837 46.4952 13.7551 46.157 14.004 45.802C14.467 45.1488 14.3755 44.4955 14.0143 43.8272C13.8 43.4335 13.6142 43.0189 13.4642 42.5983C13.1765 41.7928 13.4374 41.3034 14.401 40.9635C14.783 41.3779 15.1951 41.8478 15.6298 42.2968C16.2756 42.9618 17.0789 43.2183 17.9662 42.9666C18.6346 42.7772 19.0301 43.053 19.3553 43.5422C19.7014 44.0644 19.9951 44.619 20.3503 45.132C20.6335 45.5391 20.9422 45.9403 21.3019 46.2805C21.678 46.6399 21.9718 46.5922 22.3478 46.231C23.0462 45.5543 23.196 45.5422 23.863 46.2327C24.2287 46.6161 24.6228 46.8888 25.1743 46.8236C25.5864 46.7727 25.8487 46.9442 26.0119 47.3037C26.3611 48.0762 26.7358 48.8384 27.0564 49.6213C27.4582 50.6057 28.122 50.9159 29.0796 50.5132C29.2174 50.4552 29.3525 50.3881 29.4931 50.3312C30.0341 50.1136 30.0895 50.1029 30.3998 50.6248C30.7819 51.2675 31.1311 51.933 31.4518 52.6099C31.8818 53.5125 32.5891 54.1044 33.5438 54.2714C34.1251 54.3743 34.4309 54.6459 34.6646 55.1155C34.7861 55.3618 34.933 55.5975 35.0544 55.8435C35.6179 56.9814 36.2563 58.0434 37.5734 58.4657L37.8252 58.6267C38.4742 59.074 39.0871 59.5377 39.1306 60.4327C39.1754 61.3219 39.541 62.124 39.8738 62.9354C40.1016 63.4888 40.4328 63.9348 40.9694 64.2211C41.4055 64.4552 41.7022 64.8042 41.8759 65.2757C42.0422 65.72 42.2431 66.154 42.4543 66.5775C42.7495 67.1653 43.2859 67.5307 43.6622 67.4321C44.0534 67.3291 44.2601 66.9011 44.2406 66.1659C44.2332 65.8437 44.0669 65.4859 44.1612 65.2067C44.4029 64.4925 44.1946 63.817 44.0866 63.137ZM21.223 31.3293C21.0672 31.4277 20.8692 31.4681 20.6849 31.5084C20.2757 31.6037 19.8487 31.6441 19.4515 31.7755C19.002 31.9248 18.5568 32.1125 18.1433 32.3451C17.8255 32.5257 17.5183 32.7658 17.2891 33.0445C16.9594 33.4487 16.5713 33.7291 16.0406 33.9409C15.8606 33.7905 15.6886 33.6128 15.4862 33.4771C14.599 32.8819 14.0626 32.8389 13.3538 33.3682C13.1604 33.5129 12.9341 33.6099 12.552 33.8246C12.624 33.3534 12.6434 33.0462 12.7229 32.7553C12.7963 32.4928 12.9461 32.2527 13.0435 31.9962C13.3433 31.2087 13.2518 30.8791 12.5294 30.4226C12.2328 30.2363 12.1202 30.0213 12.1279 29.6905C12.1399 29.1908 12.1325 28.6897 12.1294 28.1886C12.1265 27.4503 11.831 26.8985 11.1389 26.5658C10.6742 26.342 10.6339 26.181 10.7479 25.6679C10.8197 25.3548 10.8797 25.0326 10.9157 24.712C11.0431 23.6322 10.5007 22.8805 9.70344 22.2406C9.56712 22.1317 9.42768 21.9244 9.43224 21.7648C9.45024 20.9997 9.19392 20.2347 9.49536 19.4665C9.68568 18.9788 9.37536 18.588 9.04272 18.2732C8.5212 17.784 8.45976 17.1905 8.58864 16.5491C8.69496 16.0093 8.94384 15.8467 9.48792 15.9212C9.63624 15.9436 9.79224 15.9465 9.93432 15.9883C11.1694 16.3597 12.1418 15.893 13.002 15.0518C13.1443 14.9115 13.2941 14.7756 13.4335 14.6326C13.9056 14.1463 14.4886 13.9748 15.1481 14.0435C15.5736 14.0868 15.9931 14.1881 16.4174 14.2105C16.9658 14.2404 17.5145 14.2196 18.1258 14.2196C19.3246 16.3865 19.8386 16.6461 21.685 15.9778C22.1285 16.4237 22.6274 16.8281 22.3022 17.6154C22.1539 17.978 22.2888 18.3642 22.548 18.6668C22.9046 19.086 23.2613 19.5067 23.6525 19.8929C23.9177 20.1568 24.2414 20.3627 24.5458 20.5999C24.3509 20.9204 24.258 21.0905 24.1486 21.2472C23.7036 21.8871 23.615 22.3345 24.0991 22.8862C24.7675 23.6453 24.4169 24.4448 24.3778 25.2428L24.2834 25.4396C23.807 25.9737 23.3213 26.503 22.8463 27.0385C22.3759 27.568 22.235 28.2301 22.127 28.8968C22.0642 29.2904 22.0418 29.6919 21.9787 30.087C21.8957 30.5984 21.6785 31.0458 21.223 31.3293Z" fill="#11B0C8"/>
<path d="M239.505 30.8297C239.153 30.6598 238.816 30.7401 238.486 30.882C237.636 31.2474 236.774 31.5919 235.949 32.0051C235.415 32.2704 234.852 32.5659 234.45 32.9865C233.193 34.3079 231.383 34.788 230.034 35.956L229.899 36.0214C228.691 36.5061 227.506 37.0624 226.267 37.4517C225.186 37.7904 224.076 37.9944 223.347 39.0236C223.329 38.7554 223.353 38.5375 223.428 38.3376C223.65 37.7486 223.548 37.2057 223.226 36.6924C222.988 36.3107 222.717 35.9483 222.48 35.565C222.366 35.3815 222.225 35.1668 222.228 34.9698C222.24 34.4791 222.021 34.1228 221.745 33.7468C221.569 33.5008 221.423 33.1683 221.414 32.8714C221.368 31.3248 221.375 29.778 221.345 28.2331C221.33 27.4546 220.993 26.8503 220.307 26.4359C220.107 26.3151 219.884 26.1063 219.826 25.8975C219.409 24.3865 218.495 23.0308 218.426 21.4128C218.417 21.2413 218.366 21.0653 218.305 20.9043C217.81 19.6216 217.335 18.3315 216.797 17.0685C216.575 16.5463 216.231 16.0677 215.893 15.6038C215.764 15.4306 215.447 15.2236 215.3 15.2756C215.084 15.3487 214.844 15.6232 214.801 15.847C214.723 16.2542 214.769 16.6865 214.786 17.1103C214.828 18.4034 214.88 19.6995 214.931 21.0149C214.113 21.1969 213.915 21.7398 213.961 22.3899C214.024 23.2596 214.126 24.1245 214.225 24.9894C214.282 25.4846 214.41 25.974 214.424 26.4689C214.452 27.4427 214.435 28.4196 214.418 29.3934C214.401 30.4852 214.579 31.5412 215.051 32.5255C215.444 33.3515 215.688 34.2047 215.728 35.1145C215.751 35.5874 215.776 36.0632 215.762 36.5362C215.748 37.0043 215.919 37.3726 216.28 37.6459C216.532 37.8353 216.819 37.9767 217.238 38.2275C216.911 39.407 216.609 40.6168 216.238 41.8068C215.883 42.9492 215.402 44.0453 215.73 45.3043C215.88 45.8726 215.65 46.1054 215.081 46.3006C214.726 46.4231 214.354 46.5022 214.004 46.6376C213.094 46.9909 212.168 47.3148 211.293 47.7445C210.539 48.1159 210.495 48.5915 211.029 49.2462L211.144 49.4117L211.057 49.5519C210.888 49.6563 210.714 49.7561 210.536 49.8471C209.398 50.4333 208.48 51.2774 207.669 52.2438C207.119 52.8999 207.11 53.3416 207.557 54.0111C208.077 54.7881 208.064 55.0477 207.377 55.6664C206.541 56.4211 205.683 57.1537 204.823 57.8798C204.434 58.2095 204.104 58.563 203.924 59.0552C203.864 59.2205 203.719 59.419 203.564 59.4744C202.653 59.8038 202.084 60.4764 201.64 61.2864C201.246 62.0082 200.719 62.5958 199.981 62.9763C199.583 63.1803 199.148 63.3193 198.757 63.5371C197.008 64.511 195.572 65.8829 194.143 67.2492C193.814 67.5626 193.621 68.0353 193.431 68.4633C193.231 68.9061 193.136 69.3805 193.597 69.7608C193.985 70.0799 194.448 70.0815 194.998 69.7593L195.305 69.5446C196.324 68.6931 197.327 67.8236 198.362 66.9927C198.746 66.6838 199.178 66.3826 199.637 66.2307C200.537 65.9324 201.467 65.7191 202.396 65.5118C203.4 65.2851 204.274 64.8764 205.002 64.1156C205.97 63.1015 206.996 62.141 208.001 61.1612C208.161 61.0062 208.334 60.8495 208.524 60.7363C209.174 60.3455 209.649 59.7907 209.922 59.109C210.405 57.898 211.208 56.9137 212.04 55.9427C212.413 55.5056 212.826 55.0986 213.174 54.6405C213.394 54.3512 213.597 54.013 213.684 53.6636C213.959 52.5837 214.58 51.7936 215.503 51.1909C216.782 50.3528 218.038 49.4862 219.312 48.6378C219.869 48.2678 220.277 47.7832 220.58 47.1865C220.77 46.8122 221.013 46.4544 221.283 46.1308C222.058 45.1985 223.051 44.6229 224.225 44.2796C226.107 43.7293 227.445 42.4975 228.291 40.751C228.513 40.2948 228.85 39.986 229.258 39.7385C229.534 39.5684 229.835 39.4311 230.139 39.3179C231.023 38.9866 231.776 38.4633 232.483 37.8472C232.897 37.4863 233.334 37.13 233.816 36.8749C235.272 36.1084 236.558 35.115 237.749 33.9964C238.443 33.3463 239.105 32.6588 239.751 31.9621C240.166 31.5188 240.047 31.0907 239.505 30.8297Z" fill="#11B0C8"/>
<path d="M117.106 44.3272C116.688 43.3309 116.316 42.333 116.384 41.2189C116.43 40.4508 116.364 39.6769 116.393 38.9073C116.415 38.2853 116.439 37.6528 116.579 37.0504C116.826 35.9825 117.151 34.9296 117.461 33.8765C117.607 33.3859 117.575 32.9206 117.254 32.527C116.799 31.9647 116.749 31.3353 116.904 30.6852C117.096 29.8857 117.354 29.0999 117.566 28.3047C117.643 28.02 117.73 27.7202 117.715 27.4308C117.692 26.9373 117.496 26.4806 117.004 26.2795C116.48 26.0631 116.011 26.2644 115.651 26.6657C115.404 26.9418 115.146 27.2444 115.013 27.5831C114.776 28.1827 114.607 28.8135 114.451 29.4414C114.146 30.6718 113.87 31.9112 113.581 33.1447L113.481 33.4265C112.891 34.3332 112.686 35.3534 112.548 36.4019C112.477 36.946 112.188 37.3043 111.674 37.607C110.931 38.0472 110.238 38.6063 109.619 39.2102C109.032 39.7817 108.561 40.472 108.043 41.1119C108.058 40.6751 108.034 40.2317 108.11 39.8085C108.377 38.3379 108.686 36.8732 108.972 35.4028C109.114 34.669 109.269 33.9322 109.362 33.191C109.408 32.8048 109.402 32.3813 109.291 32.013C109.153 31.5579 108.875 31.1359 108.313 31.1017C107.778 31.0659 107.412 31.3566 107.154 31.7968C107.067 31.9475 106.991 32.1071 106.925 32.2681C106.266 33.8954 105.611 35.5239 104.909 37.2616C104.676 36.1996 104.24 35.4284 103.042 35.7016C102.623 35.008 102.519 34.2876 102.377 33.5822C102.263 33.0228 101.995 32.5575 101.604 32.1505C101.301 31.8357 100.917 31.8357 100.555 31.9685C100.184 32.1059 99.9356 32.3698 99.9356 32.8172C99.9356 33.1886 99.8773 33.5598 99.8501 33.9326C99.805 34.5515 99.7301 35.1721 99.7273 35.7909C99.7258 36.4382 99.7647 37.0901 99.8396 37.7343C99.9519 38.6978 99.3601 39.3303 98.8534 40.097C98.6033 39.5897 98.353 39.1813 98.1941 38.7382C98.0861 38.4415 98.1341 38.0942 98.0653 37.7794C97.9558 37.2931 97.7909 36.8202 97.6801 36.3341C97.5543 35.7778 97.4523 35.2155 97.3563 34.6561C97.31 34.3848 97.3234 34.1061 97.274 33.8373C97.0342 32.5399 96.661 31.2663 96.6565 29.9285C96.655 29.5107 96.595 29.0798 96.4873 28.6757C96.3641 28.2209 96.0241 27.9806 95.6763 28.0597C95.2313 28.1626 94.7847 28.3116 94.5449 28.7366C94.3023 29.1691 94.076 29.618 93.9051 30.0832C93.7251 30.5741 93.6188 31.0915 93.4841 31.5985C93.3913 31.9535 93.1918 32.1728 92.7963 32.1534C92.0725 32.1207 91.7084 32.5724 91.4506 33.1525C91.2694 33.5643 91.1405 33.9998 90.9305 34.3965C90.3776 35.4508 90.2381 36.5233 90.6953 37.6464C90.8511 38.0295 90.8871 38.4203 90.7419 38.8141C90.2427 40.1696 90.0029 41.6224 89.1939 42.8649C89.0336 43.1109 88.8927 43.409 88.8687 43.6956C88.8267 44.1803 88.7129 44.7815 88.9361 45.1452C89.3393 45.7911 89.4159 46.4324 89.3962 47.1363C89.3902 47.284 89.4113 47.439 89.4459 47.5823C89.5628 48.0416 89.9254 48.3696 90.3224 48.3906C90.7599 48.4114 91.0297 48.1878 91.1931 47.6238C91.3143 47.2123 91.4597 46.832 91.7821 46.5189C92.1569 46.1518 92.2364 45.6686 92.0518 45.1959C91.9035 44.8082 92.0158 44.5204 92.2301 44.2249C92.3921 44.0028 92.5853 43.7957 92.7128 43.5571C92.8357 43.323 92.966 43.0557 92.9645 42.8037C92.9571 41.9627 93.4109 41.3632 93.8996 40.7114C94.0705 40.8411 94.1725 40.965 94.3028 41.0111C94.9006 41.2154 95.1133 41.7091 95.2798 42.2415C95.515 43.0051 95.6965 43.7883 95.9902 44.5278C96.3917 45.5465 96.8744 46.5325 97.3299 47.5316L97.5157 47.7655C97.7645 48.028 98.0566 48.0994 98.4058 47.9817C98.8659 47.8309 99.1417 47.5192 99.1448 47.048C99.1477 46.0519 99.1133 45.054 99.0862 44.0565C99.0711 43.4986 99.0339 42.9392 99.0039 42.295C99.5329 42.5756 99.7412 42.8947 99.6963 43.3748C99.6752 43.5972 99.7143 43.8282 99.6797 44.0475C99.5434 44.9093 100.107 45.3822 100.673 45.8492C100.891 46.0266 101.16 46.0297 101.367 45.8386C101.904 45.3406 102.43 44.8304 102.326 43.9909C102.298 43.7733 102.292 43.5361 102.346 43.3256C102.554 42.5188 102.478 41.7432 102.162 40.9825C102.056 40.7319 102.01 40.4919 102.168 40.1861C102.533 40.5174 102.914 40.7513 103.137 41.09C103.663 41.8775 104.128 42.7068 104.586 43.5358C104.949 44.1905 105.256 44.8737 105.608 45.5343C105.793 45.8788 106.065 46.1515 106.5 46.1114C106.94 46.0696 107.236 45.8341 107.359 45.3896C107.435 45.1108 107.547 44.8424 107.658 44.5278L107.756 44.635L107.786 44.8558C107.847 45.8759 108.403 46.5039 109.343 46.8485C109.671 46.9677 109.991 47.111 110.294 47.2797C111.523 47.964 112.915 47.7089 113.792 46.6247C113.93 46.4549 114.06 46.2789 114.255 46.0269C114.337 46.4057 114.403 46.6935 114.459 46.9813C114.603 47.6929 114.952 48.2907 115.473 48.7845C115.965 49.2497 116.635 49.2841 117.199 48.9039C117.694 48.5683 117.957 48.1357 117.904 47.514C117.809 46.4047 117.533 45.3487 117.106 44.3272ZM93.1589 37.6485C93.595 36.4927 94.0057 35.41 94.4146 34.3256L94.6095 34.3748C94.6095 34.9444 94.5272 35.5292 94.6321 36.0795C94.7309 36.5863 95.0321 37.0564 95.2885 37.6483H93.1589V37.6485ZM112.763 43.301C112.51 43.5098 112.32 43.7948 112.08 44.0245C111.669 44.421 111.155 44.3508 111.074 43.8275C110.998 43.3428 111.13 42.8193 111.211 42.3196C111.29 41.8302 111.494 41.4798 112.036 41.2636C112.52 41.0668 112.903 40.6208 113.461 40.1852C113.587 41.3907 113.785 42.4553 112.763 43.301Z" fill="#11B0C8"/>
<path d="M81.6347 21.2518C81.0966 21.3414 80.5334 21.3861 80.0342 21.586C79.4349 21.8246 78.8399 22.1423 78.3304 22.5359C76.8062 23.7142 75.3167 24.94 73.8256 26.1615C73.4555 26.4658 73.1332 26.8401 72.5982 26.7895C72.1367 26.7462 71.7635 26.9268 71.422 27.1996C70.8734 27.635 70.343 28.0974 69.7883 28.5269C69.5334 28.7239 69.2579 28.9088 68.9627 29.0371C68.4669 29.2549 67.9482 29.4233 67.4327 29.6142C67.0866 29.0072 67.0581 28.3733 67.3967 27.7157C67.5347 27.4504 67.6516 27.1625 67.6996 26.8716C67.8419 26.0156 68.0351 25.1624 67.5316 24.3242C67.3804 24.0737 67.4313 23.6994 67.4042 23.3788C67.3682 22.9582 67.4627 22.4779 67.2933 22.126C67.0084 21.5399 67.1133 21.0283 67.3007 20.481C67.3725 20.2677 67.4507 20.0559 67.509 19.8397C67.7685 18.8867 67.8522 17.9203 67.6542 16.9464C67.437 15.8666 66.5034 15.5296 65.6162 16.1993C65.4558 16.3187 65.297 16.4379 65.1515 16.5468C64.2614 16.323 64.0905 16.3469 63.6995 16.9254C63.5241 17.1851 63.3952 17.5101 63.3578 17.819C63.3083 18.2618 63.3758 18.7168 63.3666 19.1671C63.3414 20.5632 63.4626 21.9875 63.2272 23.3475C62.9217 25.1103 62.5199 26.8733 61.8606 28.5601C61.6629 29.0655 61.6029 29.6249 61.48 30.1588C61.3646 30.6673 61.2806 31.1849 61.1277 31.6817C60.8894 32.4661 60.5836 33.2312 60.347 34.0187C60.2646 34.2962 60.2601 34.6168 60.2961 34.9093C60.3561 35.3923 60.6453 35.7384 61.1126 35.8934C61.5338 36.0336 61.841 35.816 62.0973 35.5103C62.3999 35.1449 62.6937 34.772 63.0038 34.4097C63.1372 34.2544 63.2961 34.1216 63.4442 33.9785L63.6225 34.0784C63.5176 34.5019 63.4053 34.927 63.3078 35.3553C63.2344 35.6684 63.1355 35.9861 63.131 36.3024C63.1158 37.4656 62.951 38.5739 62.3262 39.5983C62.0656 40.028 61.917 40.6125 62.3608 40.9882C62.8449 41.4 62.788 41.8488 62.6994 42.3411C62.4222 43.8906 62.1405 45.4372 61.8467 46.9823C61.7958 47.2508 61.7133 47.5193 61.5964 47.7653C61.1918 48.6111 61.054 49.5192 60.8502 50.4214C60.633 51.3909 61.0854 52.0054 61.6624 52.6155C62.0116 52.9869 62.3622 53.0256 62.7143 52.663C63.0561 52.3126 63.4096 51.9011 63.5536 51.452C63.8502 50.5214 64.1694 49.6088 64.589 48.7274C64.6938 48.5036 64.7522 48.2533 64.8047 48.0115C65.0099 47.0587 65.2034 46.104 65.4026 45.1508C65.5898 44.2486 65.7789 43.3476 65.993 42.3292C66.7931 42.702 67.1798 42.1801 67.5964 41.685C67.6893 41.5718 67.8662 41.5285 68.0459 41.4313C68.2139 41.8756 68.2991 42.2828 68.512 42.6081C68.7249 42.9316 69.0695 43.1716 69.3496 43.4537L69.5219 43.698C70.1543 44.8629 70.8542 46.0116 70.947 47.3748C71.0054 48.2217 71.4297 48.8275 72.0575 49.3286C72.8008 49.9207 73.222 50.7199 73.4078 51.6058C73.6655 52.8199 74.2799 53.8356 75.0112 54.7872C75.3364 55.2104 75.4907 55.6384 75.5476 56.1486C75.5942 56.5662 75.6316 57.0169 75.8176 57.3804C76.1291 57.9907 76.3674 58.5945 76.4183 59.2865C76.4543 59.7921 76.8558 60.0933 77.3325 60.1007C77.8629 60.1067 78.1223 59.8872 78.2512 59.3132C78.2735 59.2179 78.2766 59.1164 78.2932 58.9674C79.047 58.9793 79.42 58.7808 79.516 58.2052C79.6477 57.4177 79.7332 56.6182 79.4231 55.8384C79.2748 55.4669 79.1534 55.0853 79.0276 54.705C78.2903 52.4736 77.5816 50.2413 77.4587 47.8608C77.427 47.2986 77.1215 46.7079 76.8083 46.2142C76.2762 45.3791 75.8745 44.5336 75.7158 43.5387C75.5001 42.1933 74.9471 41.7206 73.5998 41.497C73.0934 41.412 72.6347 41.2567 72.3155 40.8062C71.5917 39.7849 70.847 38.7781 70.1157 37.7653C70.0122 37.622 69.9328 37.4656 69.843 37.3149C69.5987 36.9122 69.371 36.4989 69.1101 36.1082C68.5826 35.3133 68.8749 34.3781 69.7802 34.032C70.3434 33.8187 70.9101 33.6191 71.4719 33.4043C73.0722 32.7943 74.1827 31.7593 74.5979 30.0338C74.8406 29.0333 75.3606 28.1844 76.4097 27.7907C76.6209 27.7117 76.8083 27.5746 77.0135 27.4821C78.0611 27.0004 78.8147 26.2248 79.3048 25.1941C79.4951 24.796 79.8052 24.538 80.1381 24.2576C80.8454 23.6626 81.4974 23.0019 82.1536 22.3486C82.3514 22.1533 82.4788 21.8996 82.3199 21.6015C82.1728 21.3232 81.9345 21.2009 81.6347 21.2518Z" fill="#11B0C8"/>
<path d="M193.896 53.711C194.145 53.368 194.226 52.9653 194.104 52.5688C193.908 51.9273 193.688 51.2893 193.426 50.6702C192.995 49.6665 192.75 48.6702 192.927 47.5443C193.204 45.7724 192.809 44.0885 191.724 42.6477C191.26 42.0319 191.09 41.4487 191.192 40.7163C191.257 40.251 191.253 39.7724 190.977 39.3355C190.347 38.3407 189.743 37.3325 188.655 36.7315C188.275 36.5227 188.288 36.0737 188.663 35.8248C188.892 35.6741 189.165 35.595 189.406 35.4608C189.842 35.2207 190.301 35.0029 190.693 34.7017C191.182 34.3257 191.701 34.0618 192.309 33.9469C192.544 33.902 192.77 33.7783 192.986 33.6622C193.72 33.2686 194.201 32.6375 194.621 31.941C194.866 31.5354 194.954 31.1103 194.903 30.6493C194.87 30.3512 194.866 30.0438 194.783 29.7591C194.666 29.3595 194.582 28.8925 194.317 28.6061C193.816 28.0618 193.494 27.4219 193.099 26.8209C192.859 26.4526 192.771 26.1676 193.03 25.7425C193.412 25.1191 193.262 24.5628 192.729 24.0616C192.138 23.5128 191.462 23.2651 190.656 23.4471C189.983 23.5975 189.36 23.4397 188.765 23.1385C187.831 22.6641 187.232 22.7104 186.545 23.48C185.849 24.263 185.234 25.1207 184.587 25.9469C184.485 26.0764 184.392 26.2137 184.274 26.3778C183.882 26.0198 183.914 25.5889 183.863 25.1773C183.749 24.2616 183.656 23.3413 183.472 22.4405C183.363 21.9053 183 21.6724 182.578 21.6693C182.119 21.6635 181.693 21.9915 181.553 22.5076C181.497 22.7133 181.521 22.9431 181.513 23.1623C181.489 23.8082 181.504 24.4569 181.437 25.0997C181.309 26.3391 181.037 27.5711 181.005 28.812C180.972 30.1737 180.771 31.4905 180.481 32.8136C180.383 33.2624 180.434 33.7501 180.464 34.2183C180.502 34.8209 180.863 35.2131 181.383 35.4978C182.03 35.8499 182.185 36.287 181.907 36.9861C181.753 37.3814 181.54 37.7528 181.386 38.1496C181.121 38.8298 181.077 39.5304 181.444 40.1808C181.841 40.8864 181.853 41.5633 181.63 42.336C181.455 42.9444 181.383 43.6289 181.465 44.2535C181.571 45.0592 181.579 45.8436 181.481 46.6385C181.441 46.9605 181.402 47.2932 181.444 47.6092C181.479 47.8612 181.583 48.149 181.754 48.3325C182.394 49.0185 183.419 48.8558 183.783 47.9656C183.993 47.4482 184.078 46.8516 184.088 46.2907C184.103 45.4211 184.279 44.6262 184.638 43.8298C184.899 43.2511 184.993 42.589 185.114 41.9565C185.186 41.5748 185.165 41.178 185.181 40.8962C185.36 41.0276 185.581 41.1797 185.796 41.3436C186.812 42.1175 187.545 43.1211 188.17 44.2175C188.404 44.6278 188.676 45.0379 189.012 45.3645C189.731 46.0626 190.006 46.8841 189.958 47.8655C189.935 48.3339 189.938 48.8427 190.1 49.2678C190.412 50.0924 190.622 50.9305 190.789 51.7925C190.945 52.5815 191.257 53.3274 191.868 53.8969C192.511 54.4957 193.388 54.4135 193.896 53.711ZM188.062 32.0077C187.867 32.3686 187.551 32.6626 187.26 33.0175C187.083 32.8938 186.925 32.8386 186.86 32.7283C186.569 32.2303 186.223 31.7932 185.769 31.4217C185.603 31.2861 185.6 30.9565 185.507 30.667C186.287 30.4866 186.719 30.0748 186.983 29.4218C187.431 28.3197 187.681 28.2063 189.183 28.3479C188.08 29.0891 188.087 29.9736 188.324 30.9653C188.399 31.2801 188.228 31.6962 188.062 32.0077Z" fill="#11B0C8"/>
<path d="M194.118 35.747C193.542 35.8975 193.301 36.2959 193.415 36.8655C193.547 37.5277 193.95 37.9022 194.623 37.8425C195.21 37.7904 195.688 37.9992 196.207 38.1945C196.988 38.4898 197.584 39.2176 198.56 39.1C198.498 39.2923 198.483 39.422 198.422 39.5233C198.029 40.1899 197.884 40.9044 197.86 41.6723C197.848 42.0215 197.675 42.3929 197.491 42.7046C197.244 43.1252 197.165 43.5456 197.292 43.9961C197.392 44.3554 197.508 44.7208 197.69 45.043C197.908 45.4261 197.92 45.7395 197.732 46.1539C197.332 47.0489 197.224 47.9797 197.72 48.8998C197.8 49.0489 197.863 49.2337 197.855 49.3978C197.8 50.4686 197.887 51.5826 197.616 52.5971C197.236 54.008 197.203 55.4086 197.236 56.8298C197.252 57.4802 197.386 58.1304 197.794 58.6671C198.185 59.1802 198.672 59.1369 198.997 58.5835C199.072 58.4567 199.112 58.3079 199.158 58.1643C199.378 57.4516 199.595 56.7371 199.807 56.0184C199.919 55.6365 200.063 55.2565 200.111 54.8655C200.312 53.1832 200.504 51.4978 200.658 49.8111C200.743 48.8745 200.893 47.9797 201.458 47.1951C201.585 47.0179 201.699 46.7941 201.716 46.5836C201.77 45.8647 201.87 45.1355 201.597 44.4313C201.471 44.1093 201.486 43.8019 201.659 43.4979C202.174 42.5838 202.224 41.6052 202.098 40.591C202.04 40.1286 202.047 39.6559 202.024 39.1891L202.207 39.0563C202.468 39.1772 202.778 39.2426 202.981 39.4278C203.842 40.2167 204.891 40.2974 205.942 40.1362C206.523 40.0454 206.959 40.1348 207.404 40.4689C207.98 40.9027 208.64 41.1267 209.365 41.1549C210.382 41.1905 210.77 40.8432 210.817 39.8634C211.022 39.7158 211.239 39.5861 211.428 39.4235C211.945 38.9744 211.993 38.4198 211.509 37.9258C211.273 37.6827 210.962 37.4739 210.644 37.3547C210.226 37.198 209.774 37.1128 209.329 37.0547C209.01 37.0132 208.77 36.9057 208.558 36.6597C208.146 36.175 207.596 35.9543 206.963 35.9438C206.488 35.9364 206.011 35.9421 205.525 35.9421C204.885 35.0653 204.689 35.0027 203.498 35.1608C202.987 35.2263 202.463 35.3548 201.866 35.0952C201.987 34.7104 202.067 34.3182 202.232 33.9689C202.726 32.9192 203.06 31.8197 203.267 30.6895C203.492 29.4591 203.732 28.2407 204.316 27.1159L204.361 26.9729C204.491 26.1094 204.517 25.2787 203.772 24.6268C203.179 24.1092 203.165 23.9736 203.559 23.2964C203.962 22.6044 204.401 21.9318 204.767 21.2217C204.98 20.8087 205.164 20.3477 205.212 19.8929C205.305 18.9788 204.675 18.4553 203.752 18.6015C202.927 18.7326 202.432 19.2607 202.104 19.9871C201.869 20.5075 201.614 21.0192 201.363 21.5365C200.722 22.861 200.047 24.1689 199.857 25.6649C199.79 26.2004 199.583 26.7209 199.402 27.2368C199.122 28.0437 198.893 28.861 198.908 29.7216C198.917 30.3092 198.788 30.8552 198.525 31.3831C198.172 32.0989 198.077 32.8449 198.236 33.6427C198.415 34.5377 198.136 34.8553 197.24 34.8596C196.751 34.8611 196.282 34.9057 195.893 35.2325C195.549 35.5203 195.151 35.6276 194.713 35.6531C194.513 35.6648 194.311 35.6964 194.118 35.747Z" fill="#11B0C8"/>
<path d="M57.7805 42.042C56.8829 42.6848 56.2968 42.691 55.3872 42.0585C55.1189 41.8722 54.8657 41.6649 54.5945 41.4857C54.1195 41.1697 53.622 41.0651 53.1348 41.459C52.8396 41.6962 52.5398 41.6902 52.225 41.5292C51.696 41.2562 51.2014 41.3608 50.7295 41.6589C50.3686 41.8841 50.0328 42.1526 49.6656 42.3645C49.1592 42.6537 48.69 42.3869 48.6826 41.8082C48.6794 41.614 48.7186 41.4052 48.7978 41.228C48.9595 40.8642 49.1515 40.5136 49.3478 40.1675C49.595 39.7349 49.9082 39.331 50.1062 38.8774C50.5603 37.8336 50.394 37.3177 49.4784 36.7134C49.375 36.6448 49.2701 36.5792 49.1035 36.4717C49.2338 35.5053 49.8574 34.937 50.5166 34.3867C51.4008 33.6498 52.2938 32.922 53.1451 32.1479C53.6218 31.7139 53.9378 31.1712 53.6052 30.4941C54.0802 30.1957 54.5582 30.0823 55.0723 30.0868C55.4995 30.0899 55.9267 30.0914 56.3537 30.0749C57.4327 30.0331 58.3738 29.6918 59.0362 28.7939C59.3165 28.412 59.4466 27.9765 59.2102 27.5275C58.9944 27.1145 58.6226 26.9265 58.1522 26.9473C57.3264 26.9829 56.4994 26.9951 55.6766 27.0682C55.3034 27.1023 55.0022 27.1054 54.737 26.7878C54.4464 26.4402 54.0418 26.3253 53.5846 26.3538C52.4501 26.4268 51.425 26.8057 50.5574 27.5306C50.2894 27.7544 50.0239 28.1196 49.9805 28.4492C49.8742 29.2814 49.4155 29.6693 48.6439 29.8078L48.2856 29.9182C46.7842 30.3462 46.2881 30.9532 46.0826 32.4744C45.9986 33.1098 45.9132 33.7943 45.6197 34.3432C45.1999 35.1188 44.9798 35.9018 44.9318 36.7621C44.9018 37.3306 44.6801 37.8212 44.2906 38.2445C44.0194 38.5383 43.7122 38.8232 43.5324 39.171C43.2955 39.6258 43.0918 40.1255 43.0092 40.6294C42.9043 41.2574 43.3164 41.6673 43.9519 41.715C44.0659 41.7239 44.1797 41.7165 44.3654 41.7165C44.202 41.9957 44.0388 42.1923 43.9608 42.4206C43.8094 42.8635 43.6325 43.317 43.5936 43.7747C43.5322 44.4905 43.8737 44.8247 44.6066 44.8813C44.957 44.9097 45.3094 44.8935 45.6614 44.9009C46.393 44.9188 46.6222 45.1589 46.4798 45.8716C46.351 46.5294 46.4827 47.096 47.0299 47.4688C47.5349 47.8166 47.6383 48.27 47.6503 48.8174C47.6578 49.1649 47.6938 49.5199 47.791 49.8526C47.8644 50.1029 48.0173 50.3537 48.197 50.5474C48.5057 50.8845 48.9372 50.9215 49.2684 50.616C49.5545 50.3492 49.8094 50.0239 49.9968 49.6809C50.2829 49.1559 50.4734 48.5771 50.7535 48.0492C50.9753 47.6348 51.2345 47.2288 51.5386 46.8726C51.8038 46.5607 52.135 46.4176 52.607 46.5951C52.8948 46.7038 53.304 46.6324 53.6112 46.516C53.9784 46.3775 54.3276 46.1432 54.6211 45.8807C55.1321 45.4199 55.6762 45.2933 56.352 45.4051C57.9031 45.6616 59.3297 44.6415 59.5783 43.0994C59.6306 42.7818 59.5632 42.3819 59.4 42.1091C59.0544 41.5263 58.4923 41.5321 57.7805 42.042Z" fill="#11B0C8"/>
<path d="M177.828 37.9392C177.278 37.2786 177.143 36.6463 177.513 35.8765C177.749 35.3816 177.991 34.8788 178.137 34.3538C178.498 33.0651 178.471 31.7944 177.821 30.576C177.684 30.3209 177.62 30.0121 177.59 29.7214C177.521 29.1025 177.308 28.5878 176.847 28.1361C176.031 27.3367 175.153 26.67 174.058 26.2867C172.55 25.7616 171.151 25.9362 169.985 27.0054C169.235 27.693 168.657 28.5625 167.99 29.3395C167.783 29.5795 167.558 29.8258 167.295 29.9927C166.127 30.731 165.218 31.6571 164.99 33.0771C164.855 33.9078 164.563 34.628 163.997 35.2918C163.272 36.1447 163.214 37.4271 163.837 38.2225C164.66 39.2737 164.808 40.4341 164.641 41.6928C164.575 42.1866 164.543 42.6846 164.486 43.286C164.55 43.7331 164.57 44.2897 164.721 44.8085C164.896 45.4109 165.379 45.7271 165.914 45.5914C166.539 45.4302 166.974 45.718 167.446 46.0121C167.822 46.2476 168.211 46.4683 168.619 46.6443C168.859 46.7489 169.028 46.8591 169.154 47.1053C169.557 47.8911 170.051 48.1537 170.942 47.9824C171.625 47.8496 172.278 47.5888 172.998 47.7228C173.157 47.7526 173.361 47.6915 173.504 47.6067C174.235 47.1753 175.072 46.8397 175.653 46.2567C176.69 45.2172 177.637 44.069 178.498 42.8759C179.011 42.1629 179.391 41.3217 179.151 40.3433C178.924 39.4144 178.413 38.6448 177.828 37.9392ZM172.342 40.4775C172.713 41.2426 172.689 41.2548 172.615 42.0077C172.151 42.0526 171.665 42.0989 171.231 42.1376C170.87 41.5799 170.551 41.0802 170.226 40.585C169.95 40.1704 169.608 39.8451 169.069 39.8706C168.673 39.8885 168.537 39.6559 168.473 39.3339C168.404 38.9921 168.347 38.6462 168.276 38.3047C168.077 37.3454 168.303 36.5059 169.041 35.8557C169.762 35.2201 170.051 34.4909 169.888 33.5245C169.758 32.7608 170.301 32.3058 170.953 31.9881C170.84 32.4685 170.717 32.9471 170.623 33.4303C170.428 34.4118 170.839 35.1305 171.635 35.6706C171.822 35.7972 172.027 35.8944 172.213 36.0226C172.691 36.3506 172.788 36.6281 172.606 37.1785C172.52 37.4381 172.398 37.687 172.293 37.9421C171.943 38.7941 171.928 39.6306 172.342 40.4775Z" fill="#11B0C8"/>
<path d="M39.8667 33.7976C39.8381 32.858 40.0001 31.9604 40.3342 31.0847C40.5816 30.4374 40.7103 29.7529 40.3956 29.1132C40.0462 28.4031 39.9655 27.6934 40.105 26.9358V26.636C40.0659 26.0618 39.7932 25.7814 39.2134 25.7277C38.6964 25.683 38.2212 25.7991 37.7837 26.09C37.6308 26.1929 37.4287 26.2899 37.2547 26.2794C36.3423 26.2242 36.0019 26.4762 36.1174 27.3516C36.2403 28.3001 36.1263 29.1892 35.7936 30.0689C35.7411 30.2076 35.7276 30.3598 35.6962 30.5074C35.5822 31.0458 35.6571 31.5051 36.2251 31.7604C36.5863 31.9229 36.6701 32.242 36.6089 32.5747C36.5503 32.8881 36.42 33.1907 36.3 33.489C36.0963 33.9992 35.8445 34.4913 35.6693 35.0086C35.383 35.8604 35.4715 36.6419 36.2417 37.2324C36.5429 37.4636 36.6987 37.7662 36.6821 38.1391C36.6492 38.885 36.6475 39.6353 36.5443 40.3719C36.4755 40.8759 36.3809 41.3667 36.6058 41.8397C36.811 42.2691 36.8441 42.7062 36.7392 43.1536C36.6118 43.7025 36.7272 44.1945 37.033 44.6496C37.3102 45.0599 37.4105 45.5116 37.3971 46.0008C37.3882 46.4498 37.3956 46.9003 37.3956 47.3505H37.3747C37.3747 47.8753 37.3582 48.4017 37.3793 48.927C37.4047 49.5623 37.5471 50.1707 38.0086 50.6465C38.5195 51.1715 39.1296 51.1101 39.5208 50.4989C39.624 50.3319 39.7203 50.1366 39.7409 49.9455C39.8083 49.3536 39.9103 48.751 39.8669 48.1619C39.7663 46.736 39.9103 45.3702 40.6025 44.0902C40.7208 43.8757 40.7568 43.6175 40.8454 43.3832C41.2215 42.4079 41.1046 41.4728 40.6176 40.5675L40.5473 40.4345C40.3015 39.9484 40.3104 39.4831 40.6102 39.0119C40.8514 38.633 41.0328 38.2138 41.286 37.8424C41.8601 37.0088 41.779 35.9289 40.6611 35.2773C40.0404 34.9162 39.8847 34.4299 39.8667 33.7976Z" fill="#11B0C8"/>
<path d="M36.9744 23.0236C37.5619 23.5008 38.2466 23.674 38.9494 23.4203C39.6746 23.1592 40.0238 22.5537 40.0807 21.7918C40.157 20.7688 40.3039 19.7665 40.5511 18.7657C40.8163 17.689 40.157 17.0221 38.9491 17.1893C39.0137 16.8284 39.0794 16.5422 39.1126 16.2513C39.2177 15.3893 38.579 14.5869 37.8209 14.6734C37.2425 14.7391 36.7044 14.9509 36.2938 15.4043C35.8351 15.9114 35.6748 16.7032 36.0511 17.2731C36.3883 17.7773 36.2894 18.1812 36.0331 18.6542C35.7708 19.1359 35.5222 19.6356 35.3619 20.1547C35.1473 20.8602 35.2373 21.5491 35.8279 22.0772C36.1983 22.4061 36.5906 22.7116 36.9744 23.0236Z" fill="#11B0C8"/>
<path d="M208.18 62.731V62.8745H207.765V63.9513H207.597V62.8745H207.182V62.731" fill="#11B0C8"/>
<path d="M208.294 62.731H208.531L208.886 63.7618L209.238 62.731H209.474V63.9513H209.318V63.2371L209.319 63.1057V62.922L208.967 63.9513H208.803L208.443 62.922V62.9581L208.451 63.0952V63.9513H208.294" fill="#11B0C8"/>
</svg>
